<?xml version="1.0" standalone="no"?>
<!DOCTYPE svg PUBLIC "-//W3C//DTD SVG 20010904//EN"
 "http://www.w3.org/TR/2001/REC-SVG-20010904/DTD/svg10.dtd">
<svg version="1.0" xmlns="http://www.w3.org/2000/svg"
 width="225.000000pt" height="225.000000pt" viewBox="0 0 225.000000 225.000000"
 preserveAspectRatio="xMidYMid meet">
<metadata>
Created by potrace 1.14, written by Peter Selinger 2001-2017
</metadata>
<g transform="translate(0.000000,225.000000) scale(0.100000,-0.100000)"
fill="#000000" stroke="none">
<path d="M877 2074 c-110 -466 -260 -1080 -265 -1086 -4 -3 -67 -8 -140 -10
l-134 -3 -29 -33 c-37 -41 -39 -89 -5 -129 l24 -28 224 0 223 0 21 90 c12 50
36 153 53 230 43 187 45 192 59 130 6 -28 25 -108 41 -180 16 -71 53 -231 81
-355 28 -124 64 -281 80 -350 16 -69 32 -142 36 -162 3 -21 9 -38 13 -38 4 0
16 30 28 67 39 127 245 728 252 735 4 5 22 -33 40 -82 l34 -90 189 0 c215 0
239 6 258 65 14 43 6 87 -22 111 -17 16 -42 20 -155 24 l-135 5 -79 195 c-44
107 -94 231 -111 275 l-31 80 -18 -50 c-9 -28 -59 -171 -109 -320 -51 -148
-96 -274 -100 -279 -5 -4 -13 18 -20 50 -6 33 -23 102 -36 156 -13 53 -30 127
-39 165 -8 37 -37 165 -65 283 -28 118 -69 296 -91 395 -23 99 -44 186 -49
194 -4 8 -13 -12 -23 -55z"/>
</g>
</svg>
