<svg xmlns="http://www.w3.org/2000/svg" width="58" height="17" viewBox="0 0 58 17" fill="none">
  <path d="M8 0.150879L10.8684 4.20288L15.6085 5.67874L12.6412 9.65888L12.7023 14.623L8 13.0309L3.29772 14.623L3.35884 9.65888L0.391548 5.67874L5.13161 4.20288L8 0.150879Z" fill="#EF8F00"/>
  <path d="M29 0.150879L31.8684 4.20288L36.6085 5.67874L33.6412 9.65888L33.7023 14.623L29 13.0309L24.2977 14.623L24.3588 9.65888L21.3915 5.67874L26.1316 4.20288L29 0.150879Z" fill="#EF8F00"/>
  <path d="M50 0.150879L52.8684 4.20288L57.6085 5.67874L54.6412 9.65888L54.7023 14.623L50 13.0309L45.2977 14.623L45.3588 9.65888L42.3915 5.67874L47.1316 4.20288L50 0.150879Z" fill="#EF8F00"/>
</svg>