<svg xmlns="http://www.w3.org/2000/svg" width="146" height="38" viewBox="0 0 146 38" fill="none">
  <g filter="url(#filter0_b_201_19)">
    <circle cx="127" cy="19" r="19" fill="#272633"/>
  </g>
  <path d="M120.664 25H123.05V15.1071H120.664V25ZM121.874 13.9286C122.709 13.9286 123.34 13.2857 123.34 12.4643C123.34 11.6429 122.709 11 121.874 11C121.022 11 120.408 11.6429 120.408 12.4643C120.408 13.2857 121.022 13.9286 121.874 13.9286Z" fill="#F9F9F9"/>
  <path d="M132.022 25H134.408V19.1964C134.408 16.4643 132.84 14.9643 130.641 14.9643C129.431 14.9643 128.408 15.5 127.794 16.3393V15.1071H125.408V25H127.794V19.5357C127.794 17.9464 128.63 17.0893 129.925 17.0893C131.187 17.0893 132.022 17.9464 132.022 19.5357V25Z" fill="#F9F9F9"/>
  <g filter="url(#filter1_b_201_19)">
    <circle cx="73" cy="19" r="19" fill="#272633"/>
  </g>
  <path d="M82.7031 12.7758C81.9966 13.0769 81.2437 13.2765 80.4587 13.3735C81.2662 12.905 81.8826 12.1688 82.1723 11.2815C81.4194 11.7177 80.5882 12.0258 79.7023 12.1977C78.9874 11.4581 77.9686 11 76.8571 11C74.7006 11 72.9644 12.7008 72.9644 14.7858C72.9644 15.0858 72.9906 15.3742 73.0547 15.6488C69.8164 15.4954 66.9509 13.9873 65.026 11.69C64.6899 12.2565 64.4928 12.905 64.4928 13.6031C64.4928 14.9138 65.1875 16.0758 66.223 16.7485C65.5972 16.7369 64.9833 16.5604 64.4631 16.2823C64.4631 16.2938 64.4631 16.3088 64.4631 16.3238C64.4631 18.1631 65.8133 19.6908 67.5839 20.0427C67.2668 20.1269 66.9212 20.1673 66.5626 20.1673C66.3133 20.1673 66.0615 20.1535 65.8252 20.1027C66.3299 21.6015 67.762 22.7035 69.4649 22.7392C68.1396 23.7465 66.4569 24.3535 64.6353 24.3535C64.3159 24.3535 64.0095 24.3396 63.7031 24.3015C65.4286 25.3827 67.4734 26 69.6786 26C76.8464 26 80.7651 20.2308 80.7651 15.23C80.7651 15.0627 80.7592 14.9012 80.7509 14.7408C81.5239 14.2077 82.1735 13.5419 82.7031 12.7758Z" fill="#F9F9F9"/>
  <g filter="url(#filter2_b_201_19)">
    <circle cx="19" cy="19" r="19" fill="#272633"/>
  </g>
  <path d="M24 16.3077H20.6667V13.3846C20.6667 12.5778 21.264 12.6538 22 12.6538H23.3333V9H20.6667C18.4573 9 16.6667 10.9628 16.6667 13.3846V16.3077H14V19.9615H16.6667V28H20.6667V19.9615H22.6667L24 16.3077Z" fill="#F9F9F9"/>
  <defs>
    <filter id="filter0_b_201_19" x="98" y="-10" width="58" height="58" filterUnits="userSpaceOnUse" color-interpolation-filters="sRGB">
      <feFlood flood-opacity="0" result="BackgroundImageFix"/>
      <feGaussianBlur in="BackgroundImageFix" stdDeviation="5"/>
      <feComposite in2="SourceAlpha" operator="in" result="effect1_backgroundBlur_201_19"/>
      <feBlend mode="normal" in="SourceGraphic" in2="effect1_backgroundBlur_201_19" result="shape"/>
    </filter>
    <filter id="filter1_b_201_19" x="44" y="-10" width="58" height="58" filterUnits="userSpaceOnUse" color-interpolation-filters="sRGB">
      <feFlood flood-opacity="0" result="BackgroundImageFix"/>
      <feGaussianBlur in="BackgroundImageFix" stdDeviation="5"/>
      <feComposite in2="SourceAlpha" operator="in" result="effect1_backgroundBlur_201_19"/>
      <feBlend mode="normal" in="SourceGraphic" in2="effect1_backgroundBlur_201_19" result="shape"/>
    </filter>
    <filter id="filter2_b_201_19" x="-10" y="-10" width="58" height="58" filterUnits="userSpaceOnUse" color-interpolation-filters="sRGB">
      <feFlood flood-opacity="0" result="BackgroundImageFix"/>
      <feGaussianBlur in="BackgroundImageFix" stdDeviation="5"/>
      <feComposite in2="SourceAlpha" operator="in" result="effect1_backgroundBlur_201_19"/>
      <feBlend mode="normal" in="SourceGraphic" in2="effect1_backgroundBlur_201_19" result="shape"/>
    </filter>
  </defs>
</svg>